<?xml version="1.0" encoding="UTF-8"?>
<svg width="405pt" height="270pt" version="1.1" viewBox="100 100 505 370" xmlns="http://www.w3.org/2000/svg" xmlns:xlink="http://www.w3.org/1999/xlink">
 <g>
  <path d="m622.95 282.81c0-67.699-55.074-122.77-122.77-122.77-8.9883 0-18.359 2.0742-27.836 5.6172-6.9961 2.6094-14.043 6.0156-21.062 10.039-40.992 23.492-80.688 67.375-98.492 88.531-17.809-21.156-57.504-65.035-98.5-88.531-0.57031-0.32422-1.1367-0.58203-1.707-0.89453 0.011719-0.41016 0.0625-0.80859 0.0625-1.2227 0-26.293-21.316-47.609-47.609-47.609-24.988 0-45.445 19.27-47.418 43.75-44.023 18.668-74.988 62.328-74.988 113.09 0 67.688 55.074 122.76 122.76 122.76 8.9922 0 18.359-2.0781 27.844-5.6133 6.9883-2.6094 14.039-6.0156 21.055-10.043 40.996-23.492 80.691-67.375 98.5-88.531 17.805 21.156 57.5 65.039 98.492 88.531 1.6797 0.96484 3.3711 1.7695 5.0547 2.6641-0.007812 0.21875-0.035156 0.4375-0.035156 0.66016 0 26.289 21.309 47.613 47.605 47.613 25.969 0 47.039-20.809 47.559-46.652 42.129-19.48 71.484-62.023 71.484-111.39zm-284.11 1.1719c-21.082 25.621-62.465 69.719-99.812 89.527-7.2383 3.8398-14.328 6.7891-21.082 8.4922-4.332 1.0859-8.5312 1.6758-12.543 1.6758-55.617 0-100.86-45.246-100.86-100.86 0-39.777 23.188-74.141 56.707-90.555 7.2578 17.008 24.133 28.934 43.797 28.934 17.973 0 33.609-9.9648 41.707-24.664 35.195 21.363 72.445 61.242 92.082 85.102l-0.91016 1.1797zm207.77 88.277c-7.7617-15.766-23.934-26.641-42.695-26.641-18.207 0-34.008 10.234-42.02 25.25-36.07-20.852-74.922-62.332-95.145-86.887l0.91406-1.1719-0.91406-1.1797c21.094-25.617 62.473-69.719 99.809-89.523 7.2383-3.8438 14.328-6.7891 21.09-8.4922 4.3281-1.0859 8.5234-1.6758 12.539-1.6758 55.617 0 100.87 45.246 100.87 100.87 0 38.875-22.148 72.617-54.449 89.449z"/>
 </g>
</svg>
